<svg width="90" height="38" viewBox="0 0 90 38" fill="none" xmlns="http://www.w3.org/2000/svg">
<circle cx="87" cy="35" r="3" fill="#22C55E"/>
<path d="M81 37H7C3.68629 37 1 34.3137 1 31V7C1 3.68629 3.68629 1 7 1H83C86.3137 1 89 3.68629 89 7V29" stroke="#171717" stroke-width="2" stroke-linecap="round"/>
<path d="M20.8428 25.192C19.9361 25.192 19.1308 25.0427 18.4268 24.744C17.7228 24.4347 17.1521 24.008 16.7148 23.464L18.1068 21.928C18.5014 22.3653 18.9388 22.696 19.4188 22.92C19.9094 23.1333 20.4108 23.24 20.9227 23.24C21.4881 23.24 21.9201 23.112 22.2188 22.856C22.5281 22.6 22.6828 22.232 22.6828 21.752C22.6828 21.3573 22.5654 21.0587 22.3308 20.856C22.1068 20.6533 21.7228 20.5093 21.1788 20.424L20.0108 20.232C19.0508 20.072 18.3361 19.7147 17.8668 19.16C17.3974 18.5947 17.1628 17.8853 17.1628 17.032C17.1628 15.9653 17.5148 15.1333 18.2188 14.536C18.9228 13.9387 19.9094 13.64 21.1788 13.64C22.0108 13.64 22.7521 13.7733 23.4028 14.04C24.0534 14.296 24.5814 14.6587 24.9868 15.128L23.6268 16.648C23.3281 16.3067 22.9708 16.0453 22.5548 15.864C22.1388 15.6827 21.6854 15.592 21.1948 15.592C20.6614 15.592 20.2561 15.704 19.9788 15.928C19.7121 16.152 19.5788 16.4827 19.5788 16.92C19.5788 17.2933 19.6961 17.5813 19.9308 17.784C20.1654 17.976 20.5601 18.12 21.1148 18.216L22.2828 18.424C23.1894 18.584 23.8881 18.9307 24.3788 19.464C24.8694 19.9973 25.1148 20.696 25.1148 21.56C25.1148 22.264 24.9494 22.8933 24.6188 23.448C24.2988 23.992 23.8134 24.4187 23.1628 24.728C22.5228 25.0373 21.7494 25.192 20.8428 25.192ZM26.8525 13.16H29.2205V18.248H29.3165C29.5192 17.736 29.8178 17.3253 30.2125 17.016C30.6178 16.7067 31.1298 16.552 31.7485 16.552C32.5592 16.552 33.2098 16.824 33.7005 17.368C34.1912 17.912 34.4365 18.6747 34.4365 19.656V25H32.0685V19.976C32.0685 19.4533 31.9512 19.0587 31.7165 18.792C31.4818 18.5147 31.1352 18.376 30.6765 18.376C30.2818 18.376 29.9405 18.4827 29.6525 18.696C29.3645 18.9093 29.2205 19.2027 29.2205 19.576V25H26.8525V13.16ZM40.4303 25.192C39.5236 25.192 38.7503 25.0213 38.1103 24.68C37.4809 24.328 37.0063 23.832 36.6863 23.192C36.3663 22.552 36.2063 21.7893 36.2063 20.904C36.2063 20.008 36.3663 19.2347 36.6863 18.584C37.0169 17.9333 37.4809 17.432 38.0783 17.08C38.6863 16.728 39.4009 16.552 40.2223 16.552C41.0329 16.552 41.7369 16.7227 42.3343 17.064C42.9423 17.4053 43.4063 17.8907 43.7263 18.52C44.0463 19.1493 44.2063 19.8907 44.2063 20.744V21.448H38.5583V21.592C38.5583 22.136 38.7289 22.568 39.0703 22.888C39.4116 23.208 39.8916 23.368 40.5103 23.368C40.9796 23.368 41.3903 23.2773 41.7423 23.096C42.0943 22.9147 42.4089 22.664 42.6863 22.344L43.9663 23.736C43.6143 24.1733 43.1449 24.5253 42.5583 24.792C41.9716 25.0587 41.2623 25.192 40.4303 25.192ZM40.2383 18.248C39.8969 18.248 39.5983 18.3227 39.3423 18.472C39.0969 18.6107 38.9049 18.8133 38.7663 19.08C38.6276 19.336 38.5583 19.64 38.5583 19.992V20.12H41.8863V19.992C41.8863 19.4587 41.7369 19.0373 41.4383 18.728C41.1503 18.408 40.7503 18.248 40.2383 18.248ZM50.024 25.192C49.1173 25.192 48.344 25.0213 47.704 24.68C47.0747 24.328 46.6 23.832 46.28 23.192C45.96 22.552 45.8 21.7893 45.8 20.904C45.8 20.008 45.96 19.2347 46.28 18.584C46.6107 17.9333 47.0747 17.432 47.672 17.08C48.28 16.728 48.9947 16.552 49.816 16.552C50.6267 16.552 51.3307 16.7227 51.928 17.064C52.536 17.4053 53 17.8907 53.32 18.52C53.64 19.1493 53.8 19.8907 53.8 20.744V21.448H48.152V21.592C48.152 22.136 48.3227 22.568 48.664 22.888C49.0053 23.208 49.4853 23.368 50.104 23.368C50.5733 23.368 50.984 23.2773 51.336 23.096C51.688 22.9147 52.0027 22.664 52.28 22.344L53.56 23.736C53.208 24.1733 52.7387 24.5253 52.152 24.792C51.5653 25.0587 50.856 25.192 50.024 25.192ZM49.832 18.248C49.4907 18.248 49.192 18.3227 48.936 18.472C48.6907 18.6107 48.4987 18.8133 48.36 19.08C48.2213 19.336 48.152 19.64 48.152 19.992V20.12H51.48V19.992C51.48 19.4587 51.3307 19.0373 51.032 18.728C50.744 18.408 50.344 18.248 49.832 18.248ZM59.8738 22.616C59.8738 22.712 59.8951 22.8027 59.9378 22.888C59.9911 22.9733 60.0604 23.0427 60.1458 23.096C60.2311 23.1387 60.3218 23.16 60.4178 23.16H63.0898V25H60.0338C59.4791 25 59.0098 24.8987 58.6258 24.696C58.2524 24.4933 57.9698 24.216 57.7778 23.864C57.5964 23.5013 57.5058 23.0853 57.5058 22.616V18.584H55.2658V16.744H57.5058V13.832H59.8738V16.744H63.0898V18.584H59.8738V22.616ZM68.9875 25.192C67.5155 25.192 66.4168 24.696 65.6915 23.704C64.9768 22.712 64.6195 21.2827 64.6195 19.416C64.6195 17.5493 64.9768 16.12 65.6915 15.128C66.4168 14.136 67.5155 13.64 68.9875 13.64C70.4595 13.64 71.5528 14.136 72.2675 15.128C72.9928 16.12 73.3555 17.5493 73.3555 19.416C73.3555 21.2827 72.9928 22.712 72.2675 23.704C71.5528 24.696 70.4595 25.192 68.9875 25.192ZM68.9875 15.448C68.2728 15.448 67.7555 15.6987 67.4355 16.2C67.1262 16.6907 66.9715 17.416 66.9715 18.376V20.328C66.9715 20.392 66.9768 20.4453 66.9875 20.488L70.6675 16.472C70.3688 15.7893 69.8088 15.448 68.9875 15.448ZM68.9875 23.384C69.7022 23.384 70.2142 23.1387 70.5235 22.648C70.8435 22.1467 71.0035 21.416 71.0035 20.456V18.504C71.0035 18.44 70.9982 18.3867 70.9875 18.344L67.3075 22.36C67.6062 23.0427 68.1662 23.384 68.9875 23.384Z" fill="#171717"/>
</svg>
